<?xml version="1.0" standalone="no"?>
<!DOCTYPE svg PUBLIC "-//W3C//DTD SVG 20010904//EN"
 "http://www.w3.org/TR/2001/REC-SVG-20010904/DTD/svg10.dtd">
<svg version="1.0" xmlns="http://www.w3.org/2000/svg"
 width="1000.000000pt" height="1000.000000pt" viewBox="0 0 1000.000000 1000.000000"
 preserveAspectRatio="xMidYMid meet">

<g transform="translate(0.000000,1000.000000) scale(0.100000,-0.100000)"
fill="#000000" stroke="none">
<path d="M2460 4935 l0 -285 60 0 60 0 0 108 c0 100 2 110 23 130 29 27 61 28
87 2 18 -18 20 -33 20 -130 l0 -110 60 0 60 0 0 123 c0 96 -4 129 -18 156 -33
66 -133 91 -199 51 l-33 -20 0 130 0 130 -60 0 -60 0 0 -285z"/>
<path d="M2030 5145 l0 -55 65 0 65 0 0 -220 0 -220 60 0 60 0 0 220 0 220 65
0 65 0 0 55 0 55 -190 0 -190 0 0 -55z"/>
<path d="M2910 5178 c-37 -40 -15 -100 42 -114 34 -8 78 32 78 71 0 58 -79 87
-120 43z"/>
<path d="M4582 5190 c2 -5 53 -129 113 -275 l110 -265 50 0 51 0 112 268 c62
147 112 271 112 275 0 4 -30 7 -68 7 l-67 0 -55 -142 c-82 -216 -81 -214 -90
-198 -4 8 -36 88 -70 178 l-63 162 -69 0 c-41 0 -68 -4 -66 -10z"/>
<path d="M5570 4925 l0 -275 160 0 160 0 0 55 0 55 -95 0 -95 0 0 220 0 220
-65 0 -65 0 0 -275z"/>
<path d="M3175 4986 c-37 -16 -70 -52 -84 -89 -16 -42 -13 -124 5 -164 39 -80
146 -117 219 -74 43 25 45 25 45 6 0 -12 13 -15 60 -15 l60 0 0 170 0 170 -60
0 c-46 0 -60 -3 -60 -15 0 -12 -6 -11 -32 5 -38 23 -108 26 -153 6z m160 -111
c16 -15 25 -36 25 -55 0 -19 -9 -40 -25 -55 -15 -16 -36 -25 -55 -25 -19 0
-40 9 -55 25 -16 15 -25 36 -25 55 0 19 9 40 25 55 15 16 36 25 55 25 19 0 40
-9 55 -25z"/>
<path d="M3616 4977 c-97 -55 -115 -206 -34 -284 56 -54 124 -67 193 -39 l35
15 0 -29 c0 -44 -43 -73 -98 -67 -24 2 -51 12 -61 21 -18 16 -22 16 -66 -6
l-47 -24 28 -34 c38 -44 80 -60 161 -60 83 0 140 24 174 71 23 33 24 41 27
242 l3 207 -60 0 c-33 0 -61 -5 -63 -11 -2 -6 -14 -5 -33 5 -43 23 -113 20
-159 -7z m171 -99 c33 -31 32 -90 -3 -117 -15 -12 -37 -21 -49 -21 -39 0 -75
37 -75 78 0 72 76 108 127 60z"/>
<path d="M4092 4979 c-63 -32 -95 -79 -100 -147 -6 -105 62 -179 175 -189 75
-7 123 8 174 54 94 85 66 229 -56 284 -55 26 -139 24 -193 -2z m152 -100 c35
-28 36 -80 1 -114 -60 -61 -158 5 -125 85 22 53 77 66 124 29z"/>
<path d="M6035 4982 c-122 -57 -150 -200 -55 -285 129 -118 350 -40 350 123 0
60 -26 108 -78 144 -56 39 -154 47 -217 18z m142 -97 c29 -21 38 -66 19 -103
-25 -49 -82 -57 -121 -17 -69 68 23 175 102 120z"/>
<path d="M6542 4975 c-31 -26 -32 -26 -32 -6 0 19 -6 21 -60 21 l-60 0 0 -170
0 -170 60 0 60 0 0 105 c0 92 3 108 20 125 21 21 60 26 89 10 15 -8 22 -1 41
40 13 28 20 53 17 56 -4 4 -28 9 -55 12 -41 4 -52 0 -80 -23z"/>
<path d="M6810 4989 c-32 -13 -78 -56 -96 -91 -18 -35 -18 -121 0 -156 60
-115 235 -136 325 -39 l23 26 -40 20 c-39 20 -39 20 -78 0 -42 -21 -77 -19
-106 8 -39 35 -24 42 105 45 l122 3 -2 39 c-6 94 -78 157 -177 155 -28 0 -62
-5 -76 -10z m132 -92 c15 -23 7 -27 -57 -27 -36 0 -65 4 -65 8 0 11 30 38 50
44 18 6 62 -9 72 -25z"/>
<path d="M7273 4981 c-27 -17 -33 -18 -33 -6 0 12 -14 15 -60 15 l-60 0 0
-170 0 -170 60 0 60 0 0 105 c0 99 2 107 25 130 29 30 58 32 85 5 18 -18 20
-33 20 -130 l0 -110 60 0 60 0 0 128 c0 137 -7 162 -52 195 -40 30 -124 34
-165 8z"/>
<path d="M7650 4993 c-136 -51 -149 -265 -20 -330 55 -28 104 -29 153 -3 31
17 37 17 37 5 0 -12 13 -15 60 -15 l60 0 0 170 0 170 -60 0 c-46 0 -60 -3 -60
-15 0 -12 -6 -11 -32 5 -32 19 -103 26 -138 13z m144 -114 c35 -28 36 -80 1
-114 -60 -61 -158 5 -125 85 22 53 77 66 124 29z"/>
<path d="M2900 4820 l0 -170 60 0 60 0 0 170 0 170 -60 0 -60 0 0 -170z"/>
<path d="M5182 4767 c-45 -48 -11 -127 55 -127 31 0 73 42 73 73 0 67 -83 102
-128 54z"/>
</g>
</svg>
